# xmcd CD database file
#
# Track frame offsets:
#	150
#	16330
#	33387
#	54882
#	78032
#	99335
#	117952
#	137435
#	158760
#	178640
#	185935
#	201475
#
# Disc length: 2871 seconds
#
# Revision: 0
# Processed by: cddbd v1.5.1PL0 Copyright (c) Steve Scherf et al.
# Submitted via: CDex 1.51
#
DISCID=940b350c
DTITLE=Allure - Sunny Days
DYEAR=2001
DGENRE=R&B
TTITLE0=Bump featuring Nucci Rey O
TTITLE1=Kool Wit Me
TTITLE2=Wore Out Your Welcome
TTITLE3=Enjoy Yourself/Love Me Interlude
TTITLE4=Lady
TTITLE5=Never Let You Go
TTITLE6=Can't Live Without You
TTITLE7=The Shore(Wanna Be Your Lady) featuring Miri Ben-Ari
TTITLE8=Earn My Trust
TTITLE9=Only For A While-Interlude
TTITLE10=Sunny Day
TTITLE11=Simon Sez
EXTD=YEAR: 2001
EXTT0=
EXTT1=
EXTT2=
EXTT3=
EXTT4=
EXTT5=
EXTT6=
EXTT7=
EXTT8=
EXTT9=
EXTT10=
EXTT11=
PLAYORDER=
